<?xml version="1.0" encoding="UTF-8"?>
<svg id="_레이어_1" data-name="레이어_1" xmlns="http://www.w3.org/2000/svg" viewBox="0 0 897.32 458.06">
    <defs>
        <style>
            .cls-1 {
            fill: #fff;
            }

            .cls-1, .cls-2 {
            stroke: #000;
            stroke-miterlimit: 10;
            stroke-width: 8.04px;
            }

            .cls-2 {
            fill: none;
            }
        </style>
    </defs>
    <path class="cls-2" d="M466.1,4.02c-32.14,0-176.8,8.04-188.85,200.9,180.81,120.54,381.72,12.05,381.72,12.05C646.91,4.02,498.24,4.02,466.1,4.02Z"/>
    <path class="cls-2" d="M283.29,157.74c136.62,92.42,341.62,56.16,371.71,20"/>
    <path class="cls-2" d="M282.25,156.71s-226-16.07-238.05,60.27c-40.18,84.38,574.59,389.76,843.8-16.07-100.45,28.13-232.89-21.77-232.89-21.77"/>
    <path class="cls-2" d="M126.57,202.91s-44.2,16.07-40.18,36.16,76.34,76.34,100.45,68.31"/>
    <path class="cls-2" d="M351.58,102.46s12.05-40.18,76.34-52.24"/>
    <ellipse class="cls-1" cx="562.53" cy="225.01" rx="32.14" ry="36.16" transform="translate(-28.43 91.44) rotate(-9.07)"/>
</svg>