<svg fill="none" stroke="white" width="50" height="current" viewBox="0 0 21 17" xmlns="http://www.w3.org/2000/svg">
    <g>
        <path d="M10.1554 2.53066L10.4981 2.85325L10.8408 2.53066C11.7589 1.66646 13.3469 0.5 15.1477 0.5C16.7667 0.5 18.1049 1.00665 19.032 1.83895C19.9552 2.66772 20.5 3.84415 20.5 5.25336C20.5 6.795 19.8287 8.08431 18.7703 9.2706C17.7025 10.4674 16.2776 11.5196 14.8225 12.5917C14.8225 12.5918 14.8225 12.5918 14.8225 12.5918L14.8176 12.5954C13.4616 13.5941 12.0129 14.6611 10.892 15.8524C10.8103 15.939 10.6782 16 10.5267 16H10.4714C10.3199 16 10.1872 15.9392 10.1051 15.8524C8.99567 14.6712 7.56103 13.613 6.21681 12.6215L6.17681 12.592L6.17661 12.5918C4.72108 11.5193 3.29635 10.4668 2.2289 9.27002C1.17087 8.08375 0.5 6.79463 0.5 5.25336C0.5 3.84416 1.04475 2.66773 1.96805 1.83897C2.8953 1.00667 4.23377 0.5 5.85327 0.5C7.65284 0.5 9.23691 1.6661 10.1554 2.53066Z" stroke="black"/>
    </g>
</svg>