<svg width="30" height="27" viewBox="0 0 30 27" fill="none" xmlns="http://www.w3.org/2000/svg">
<rect width="30" height="27" fill="white"/>
<path d="M15 26.9814L13.1875 25.2812C11.0833 23.2975 9.34375 21.5863 7.96875 20.1477C6.59375 18.709 5.5 17.4174 4.6875 16.273C3.875 15.1286 3.30729 14.0768 2.98438 13.1177C2.66146 12.1586 2.5 11.1776 2.5 10.1749C2.5 8.12586 3.15625 6.41469 4.46875 5.04139C5.78125 3.66809 7.41667 2.98145 9.375 2.98145C10.4583 2.98145 11.4896 3.22123 12.4688 3.70079C13.4479 4.18036 14.2917 4.8561 15 5.72804C15.7083 4.8561 16.5521 4.18036 17.5313 3.70079C18.5104 3.22123 19.5417 2.98145 20.625 2.98145C22.5833 2.98145 24.2188 3.66809 25.5313 5.04139C26.8438 6.41469 27.5 8.12586 27.5 10.1749C27.5 11.1776 27.3385 12.1586 27.0156 13.1177C26.6927 14.0768 26.125 15.1286 25.3125 16.273C24.5 17.4174 23.4063 18.709 22.0313 20.1477C20.6563 21.5863 18.9167 23.2975 16.8125 25.2812L15 26.9814ZM15 23.4501C17 21.5755 18.6458 19.9678 19.9375 18.6272C21.2292 17.2866 22.25 16.1204 23 15.1286C23.75 14.1368 24.2708 13.2539 24.5625 12.4801C24.8542 11.7062 25 10.9378 25 10.1749C25 8.867 24.5833 7.77709 23.75 6.90515C22.9167 6.03322 21.875 5.59725 20.625 5.59725C19.6458 5.59725 18.7396 5.88608 17.9063 6.46373C17.0729 7.04139 16.5 7.77709 16.1875 8.67082H13.8125C13.5 7.77709 12.9271 7.04139 12.0938 6.46373C11.2604 5.88608 10.3542 5.59725 9.375 5.59725C8.125 5.59725 7.08333 6.03322 6.25 6.90515C5.41667 7.77709 5 8.867 5 10.1749C5 10.9378 5.14583 11.7062 5.4375 12.4801C5.72917 13.2539 6.25 14.1368 7 15.1286C7.75 16.1204 8.77083 17.2866 10.0625 18.6272C11.3542 19.9678 13 21.5755 15 23.4501Z" fill="black"/>
</svg>
