<?xml version="1.0" encoding="UTF-8"?>
<svg id="_레이어_1" data-name="레이어_1" xmlns="http://www.w3.org/2000/svg" viewBox="0 0 447.19 718.69">
    <defs>
        <style>
            .cls-1 {
            fill: none;
            stroke: #000;
            stroke-miterlimit: 10;
            stroke-width: 7.98px;
            }
        </style>
    </defs>
    <path class="cls-1" d="M223.59,3.99H71.93s-39.91,59.87-39.91,147.67c0,0-27.94,518.83-27.94,518.83,0,0,43.9,39.91,67.85,43.9,23.95,3.99,103.77-31.93,103.77-31.93l39.91-407.08"/>
    <path class="cls-1" d="M223.59,3.99h151.66s39.91,59.87,39.91,147.67c0,0,27.94,518.83,27.94,518.83,0,0-43.9,39.91-67.85,43.9-23.95,3.99-103.77-31.93-103.77-31.93l-39.91-407.08"/>
    <line class="cls-1" x1="215.61" y1="279.37" x2="235.57" y2="279.37"/>
    <line class="cls-1" x1="115.84" y1="263.41" x2="71.93" y2="714.39"/>
    <line class="cls-1" x1="331.35" y1="263.41" x2="375.25" y2="714.39"/>
    <line class="cls-1" x1="46.82" y1="59.44" x2="400.37" y2="59.44"/>
    <line class="cls-1" x1="109.81" y1="3.99" x2="107.85" y2="87.8"/>
    <line class="cls-1" x1="298.56" y1="3.99" x2="299.42" y2="87.8"/>
    <path class="cls-1" d="M195.46,3.99c.2,0-7.78,131.7.2,147.67,7.98,15.96,27.94,27.94,27.94,27.94"/>
    <path class="cls-1" d="M36.63,99.98s43.28,35.71,91.17,31.72"/>
    <path class="cls-1" d="M411.17,99.98s-43.28,35.71-91.17,31.72"/>
    <polyline class="cls-1" points="7.32 610.41 77.55 656.72 181.42 624.17"/>
    <polyline class="cls-1" points="440.83 610.41 370.61 656.72 266.74 624.17"/>
    <line class="cls-1" x1="77.55" y1="656.72" x2="181.42" y2="624.17"/>
</svg>