<?xml version="1.0" encoding="UTF-8"?>
<svg id="_레이어_1" data-name="레이어_1" xmlns="http://www.w3.org/2000/svg" viewBox="0 0 616.88 682.55">
    <defs>
        <style>
            .cls-1 {
            fill: #fff;
            }

            .cls-1, .cls-2 {
            stroke: #000;
            stroke-miterlimit: 10;
            stroke-width: 9.09px;
            }

            .cls-2 {
            fill: none;
            }
        </style>
    </defs>
    <path class="cls-1" d="M609.66,242.37c-2.27,2.27-25-88.63-50-145.45C521.03-14.43,409.67,6.02,409.67,6.02c0,0-2.28,110.82-101.58,147.45C208.79,116.84,206.51,6.02,206.51,6.02c0,0-111.36-20.45-149.99,90.9C31.52,153.74,8.79,244.64,6.52,242.37c-21.42,30.23,138.63,43.18,138.63,43.18,22.73,22.73-18.18,186.35-18.18,186.35,0,0-54.54,109.08-36.36,145.45,18.07,36.13,184.16,67.81,217.48,59.24,33.32,8.58,199.42-23.11,217.48-59.24,18.18-36.36-36.36-145.45-36.36-145.45,0,0-40.91-163.63-18.18-186.35,0,0,164.03-12.95,138.63-43.18Z"/>
    <path class="cls-1" d="M120.94,249.08s23.11,33.45,23.75,37.95"/>
    <path class="cls-1" d="M494.67,249.08s-23.11,33.45-23.75,37.95"/>
    <path d="M216.89,383.48c23.31,3.32,46.92,3.8,70.33,1.21,23.39-2.6,46.42-7.93,68.46-16.19,12.44-4.66,24.56-10.17,36.22-16.54,2.37-1.29,3.33-4.76,1.85-7.05s-4.52-3.23-7.05-1.85c-4.99,2.73-10.07,5.3-15.22,7.71-2.64,1.24-5.31,2.43-7.99,3.58-.27.11-.54.23-.8.34-1.3.55.62-.25-.18.08-.61.25-1.21.5-1.82.75-1.42.58-2.84,1.15-4.27,1.71-10.67,4.16-21.6,7.66-32.7,10.47-5.52,1.4-11.07,2.63-16.67,3.69-2.72.52-5.46.99-8.19,1.43-1.44.23-2.88.45-4.33.65-.58.08-1.15.17-1.73.24,1.28-.16-.18.02-.36.05-.43.06-.87.11-1.3.17-11.29,1.41-22.67,2.14-34.05,2.16-6.42,0-12.84-.2-19.24-.65-3.2-.22-6.4-.5-9.59-.83-1.52-.16-3.05-.33-4.57-.52-.8-.1-1.59-.2-2.39-.3-1-.13-.12-.01.07,0-.58-.07-1.16-.16-1.73-.24-1.43-.2-2.67-.24-3.97.52-1.07.63-2.09,1.85-2.37,3.08-.55,2.44.75,5.94,3.6,6.34h0Z"/>
    <path class="cls-2" d="M160.09,6.7s22.73,190.9,154.54,186.35"/>
    <path class="cls-2" d="M460.07,6.7s-22.73,190.9-154.54,186.35"/>
    <path class="cls-2" d="M93.01,559.4c157.98,106.35,285.24,83.63,430.15,0"/>
</svg>