<?xml version="1.0" encoding="UTF-8"?>
<svg id="_레이어_1" data-name="레이어_1" xmlns="http://www.w3.org/2000/svg" viewBox="0 0 762.74 458.27">
    <defs>
        <style>
            .cls-1 {
            fill: none;
            stroke: #000;
            stroke-miterlimit: 10;
            stroke-width: 8.74px;
            }
        </style>
    </defs>
    <path class="cls-1" d="M4.37,332.76c0-26.21,4.37-43.69,48.06-65.53,43.69-21.84,170.38-52.42,218.43-83,48.06-30.58,179.12-122.32,192.22-131.06,13.11-8.74,74.27-21.84,83,61.16,4.37,87.37,152.9,56.79,166.01-13.11,39.32,8.74,52.42,257.75,43.69,266.49-26.21,61.16-179.12,21.84-227.17,21.84-39.32,39.32-458.71,148.54-524.24-56.79Z"/>
    <path class="cls-1" d="M52.42,267.23s28.4,185.67,362.6,78.64c216.25-63.35,342.02-49.72,342.02-49.72"/>
    <path class="cls-1" d="M189.64,219.04s15.69,56.93,81.22,35.09c65.53-21.84,122.32-96.11,183.48-109.22,61.16-13.11,95.39-11.93,95.39-11.93,99.02-42.68,142.7-47.05,162.36-31.75"/>
    <path class="cls-1" d="M241.08,199.44s42.88,37.21,51.62,80.89"/>
    <path class="cls-1" d="M293.5,168.86s47.25,45.94,55.99,89.63"/>
    <path class="cls-1" d="M345.93,133.91s55.99,45.94,64.73,89.63"/>
    <path class="cls-1" d="M402.72,94.6s55.99,59.05,64.73,102.74"/>
    <path class="cls-1" d="M681.51,188.6s21.84,21.84,21.84,78.64"/>
    <path class="cls-1" d="M340.84,46.2s30.64,3.93,65.36,48.88"/>
    <path class="cls-1" d="M431.9,2.7s-20.08,25.6-10.49,81.58"/>
</svg>